<?xml version="1.0" encoding="UTF-8" standalone="no"?>
<!DOCTYPE svg PUBLIC "-//W3C//DTD SVG 1.1//EN" "http://www.w3.org/Graphics/SVG/1.1/DTD/svg11.dtd">
<svg width="100%" height="100%" viewBox="0 0 448 512" version="1.1" xmlns="http://www.w3.org/2000/svg" xmlns:xlink="http://www.w3.org/1999/xlink" xml:space="preserve" xmlns:serif="http://www.serif.com/" style="fill-rule:evenodd;clip-rule:evenodd;stroke-linejoin:round;stroke-miterlimit:2;">
    <path d="M34.9,289.5L12.7,267.3C3.3,257.9 3.3,242.7 12.7,233.4L207,39C216.4,29.6 231.6,29.6 240.9,39L435.2,233.3C444.6,242.7 444.6,257.9 435.2,267.2L413,289.4C403.5,298.9 388,298.7 378.7,289L264,168.6L264,456C264,469.3 253.3,480 240,480L208,480C194.7,480 184,469.3 184,456L184,168.6L69.2,289.1C59.9,298.9 44.4,299.1 34.9,289.5Z" style="fill:white;fill-rule:nonzero;"/>
</svg>
